<?xml version="1.0" encoding="iso-8859-1"?>
<!-- Uploaded to: SVG Repo, www.svgrepo.com, Generator: SVG Repo Mixer Tools -->
<svg xmlns="http://www.w3.org/2000/svg" xmlns:xlink="http://www.w3.org/1999/xlink" version="1.1" id="Capa_1"  viewBox="0 0 465.001 465.001" xml:space="preserve" width="512" height="512">
<g>
	<polygon style="fill:#FF6A2E;" points="457.5,155.65 423.27,155.65 328.21,155.65 293.98,128.9 167.86,30.33 297.14,30.33  "/>
	<path style="fill:#CFC8AB;" d="M293.98,128.9v305.77H41.73v-52.24h126.13c12.42,0,22.5-10.08,22.5-22.5   c0-12.43-10.08-22.5-22.5-22.5H41.73V128.9l126.13-98.57L293.98,128.9z M232.5,231.78c0-30-20.44-55.23-48.15-62.51   c-5.26-1.39-10.79-2.13-16.49-2.13c-35.7,0-64.65,28.94-64.65,64.64c0,35.71,28.95,64.65,64.65,64.65c5.7,0,11.24-0.74,16.5-2.13   C212.07,287.01,232.5,261.78,232.5,231.78z"/>
	<polygon style="fill:#FFF8ED;" points="423.27,155.65 423.27,434.67 293.98,434.67 293.98,128.9 328.21,155.65  "/>
	<path style="fill:#FFF8ED;" d="M167.86,337.43c12.42,0,22.5,10.07,22.5,22.5c0,12.42-10.08,22.5-22.5,22.5H41.73H30   c12.43,0,22.5-10.08,22.5-22.5c0-12.43-10.07-22.5-22.5-22.5h11.73H167.86z"/>
	<path style="fill:#FFF8ED;" d="M167.86,167.14c5.7,0,11.23,0.74,16.49,2.13c-27.7,7.29-48.14,32.52-48.14,62.51   c0,30.01,20.44,55.23,48.15,62.52c-5.26,1.39-10.8,2.13-16.5,2.13c-35.7,0-64.65-28.94-64.65-64.65   C103.21,196.08,132.16,167.14,167.86,167.14z"/>
	<path style="fill:#945136;" d="M184.35,169.27c27.71,7.28,48.15,32.51,48.15,62.51s-20.43,55.23-48.14,62.52   c-27.71-7.29-48.15-32.51-48.15-62.52C136.21,201.79,156.65,176.56,184.35,169.27z"/>
	<path style="fill:#CFC8AB;" d="M30,337.43c12.43,0,22.5,10.07,22.5,22.5c0,12.42-10.07,22.5-22.5,22.5s-22.5-10.08-22.5-22.5   C7.5,347.5,17.57,337.43,30,337.43z"/>
	<path style="fill:#591200;" d="M462.118,149.741L301.761,24.418c-1.319-1.031-2.944-1.591-4.618-1.591H167.858   c-1.766,0-3.388,0.609-4.669,1.631L2.882,149.741c-3.264,2.551-3.842,7.264-1.291,10.527c1.479,1.893,3.685,2.882,5.915,2.882   c1.615,0,3.242-0.52,4.613-1.591l22.115-17.284v163.156c0,4.143,3.358,7.5,7.5,7.5s7.5-3.357,7.5-7.5V132.553l118.624-92.708   l118.624,92.708v294.62H49.234v-14.745c0-4.143-3.358-7.5-7.5-7.5s-7.5,3.357-7.5,7.5v22.245c0,4.143,3.358,7.5,7.5,7.5h381.533   c4.142,0,7.5-3.357,7.5-7.5V185.651c0-4.143-3.358-7.5-7.5-7.5s-7.5,3.357-7.5,7.5v241.522H301.482V144.276l22.115,17.284   c1.319,1.031,2.944,1.591,4.618,1.591H457.5c3.201,0,6.049-2.031,7.091-5.058C465.633,155.067,464.64,151.712,462.118,149.741z    M330.798,148.151L189.634,37.827H294.56l141.164,110.323H330.798z"/>
	<path style="fill:#591200;" d="M197.858,359.927c0-16.542-13.458-30-30-30H30c-16.542,0-30,13.458-30,30s13.458,30,30,30h137.857   C184.4,389.927,197.858,376.469,197.858,359.927z M182.858,359.927c0,8.271-6.729,15-15,15H55.964   c2.561-4.416,4.036-9.538,4.036-15s-1.475-10.584-4.036-15h111.893C176.129,344.927,182.858,351.656,182.858,359.927z M15,359.927   c0-8.271,6.729-15,15-15s15,6.729,15,15s-6.729,15-15,15S15,368.199,15,359.927z"/>
	<path style="fill:#591200;" d="M186.357,301.512c0.172-0.048,0.345-0.086,0.513-0.146C217.451,293,240,264.983,240,231.784   c0-33.205-22.557-61.225-53.146-69.586c-0.278-0.099-0.562-0.177-0.851-0.242c-5.8-1.508-11.88-2.314-18.145-2.314   c-39.779,0-72.143,32.363-72.143,72.143s32.363,72.143,72.143,72.143C174.252,303.927,180.45,303.081,186.357,301.512z    M225,231.784c0,25.783-17.168,47.622-40.67,54.712c-24.013-7.232-40.616-29.441-40.616-54.712c0-25.27,16.603-47.48,40.617-54.711   C207.833,184.163,225,206.002,225,231.784z M110.715,231.784c0-27.071,18.928-49.788,44.24-55.655   c-16.208,13.394-26.24,33.598-26.24,55.655c0,22.058,10.031,42.262,26.239,55.655C129.643,281.573,110.715,258.855,110.715,231.784   z"/>
</g>















</svg>