<?xml version="1.0" encoding="iso-8859-1"?>
<!-- Uploaded to: SVG Repo, www.svgrepo.com, Generator: SVG Repo Mixer Tools -->
<svg xmlns="http://www.w3.org/2000/svg" xmlns:xlink="http://www.w3.org/1999/xlink" version="1.1" id="Capa_1"  viewBox="0 0 465 465" xml:space="preserve" width="512" height="512">
<g>
	<rect x="100.128" y="427.505" style="fill:#FF6A2E;" width="264.316" height="29.995"/>
	<path style="fill:#CFC8AB;" d="M259.022,56.523c4.975-5.979,7.973-13.66,7.973-22.028C266.995,15.475,251.521,0,232.5,0   s-34.495,15.475-34.495,34.495c0,8.369,2.998,16.049,7.973,22.028c-64.485,12.429-113.349,69.28-113.349,137.339v233.643   c0,4.143,3.358,7.5,7.5,7.5s7.5-3.357,7.5-7.5V193.862c0-59.821,42.286-109.944,98.535-122.068   c-4.442,6.817-8.459,15.538-11.979,26.096c-8.582,25.746-13.309,59.83-13.309,95.973v233.643c0,4.143,3.358,7.5,7.5,7.5   s7.5-3.357,7.5-7.5V193.862c0-77.366,21.331-124.872,36.624-124.872s36.624,47.506,36.624,124.872v233.643   c0,4.143,3.358,7.5,7.5,7.5s7.5-3.357,7.5-7.5V193.862c0-36.143-4.727-70.227-13.309-95.973   c-3.519-10.558-7.537-19.279-11.979-26.096c56.249,12.125,98.535,62.247,98.535,122.068v233.643c0,4.143,3.358,7.5,7.5,7.5   s7.5-3.357,7.5-7.5V193.862C372.372,125.803,323.508,68.952,259.022,56.523z M213.005,34.495C213.005,23.745,221.75,15,232.5,15   s19.495,8.745,19.495,19.495S243.25,53.99,232.5,53.99S213.005,45.245,213.005,34.495z"/>
	<path style="fill:#591200;" d="M374.693,435.005H90.307c-4.142,0-7.5-3.357-7.5-7.5s3.358-7.5,7.5-7.5h284.387   c4.142,0,7.5,3.357,7.5,7.5S378.835,435.005,374.693,435.005z"/>
	<path style="fill:#591200;" d="M364.444,465H100.128c-4.142,0-7.5-3.357-7.5-7.5s3.358-7.5,7.5-7.5h264.316   c4.142,0,7.5,3.357,7.5,7.5S368.586,465,364.444,465z"/>
</g>















</svg>